<svg width="1162" height="362" viewBox="0 0 1162 362" fill="none" xmlns="http://www.w3.org/2000/svg">
<path d="M806 356L922.5 42C928.167 27.6667 936.333 17.1667 947 10.5C957.667 3.5 969.833 0 983.5 0C997.5 0 1009.83 3.33332 1020.5 9.99998C1031.5 16.6666 1039.67 27.1667 1045 41.5L1162 356H1096.5L1069.5 278.5H896.5L868.5 356H806ZM914.5 225.5H1051.5L995.5 62C994.167 58.6667 992.5 56.1666 990.5 54.5C988.833 52.8333 986.667 52 984 52C981.333 52 979.167 53 977.5 55C975.833 56.6667 974.5 59 973.5 62L914.5 225.5Z" fill="white"/>
<path d="M708 362C688.667 362 671.5 357.5 656.5 348.5C641.5 339.5 629.833 327.333 621.5 312C613.167 296.667 609 279.667 609 261V93.5C609 85.8333 607.167 79 603.5 73C599.833 66.6666 594.833 61.6667 588.5 58C582.5 54.3333 575.833 52.5 568.5 52.5C561.167 52.5 554.5 54.3333 548.5 58C542.5 61.6667 537.667 66.6666 534 73C530.333 79 528.5 85.8333 528.5 93.5V261H469V101C469 82 473.167 65 481.5 50C489.833 34.6666 501.5 22.5 516.5 13.5C531.5 4.49999 548.833 0 568.5 0C588.5 0 606 4.49999 621 13.5C636 22.5 647.667 34.6666 656 50C664.333 65 668.5 82 668.5 101V268.5C668.5 276.167 670.333 283.167 674 289.5C677.667 295.5 682.5 300.333 688.5 304C694.5 307.667 701 309.5 708 309.5C715.333 309.5 722 307.667 728 304C734 300.333 738.667 295.5 742 289.5C745.667 283.167 747.5 276.167 747.5 268.5V5.99997H807.5V261C807.5 279.667 803.333 296.667 795 312C786.667 327.333 775 339.5 760 348.5C745.333 357.5 728 362 708 362Z" fill="white"/>
<path d="M362 245C362 225.667 357.5 208.5 348.5 193.5C339.5 178.5 327.333 166.833 312 158.5C296.667 150.167 279.667 146 261 146H93.5C85.8333 146 79 144.167 73 140.5C66.6666 136.833 61.6667 131.833 58 125.5C54.3333 119.5 52.5 112.833 52.5 105.5C52.5 98.1667 54.3333 91.5 58 85.5C61.6667 79.5 66.6666 74.6667 73 71C79 67.3333 85.8333 65.5 93.5 65.5H177.5V6H101C82 6 65 10.1667 50 18.5C34.6666 26.8333 22.5 38.5 13.5 53.5C4.49999 68.5 0 85.8333 0 105.5C0 125.5 4.49999 143 13.5 158C22.5 173 34.6666 184.667 50 193C65 201.333 82 205.5 101 205.5H268.5C276.167 205.5 283.167 207.333 289.5 211C295.5 214.667 300.333 219.5 304 225.5C307.667 231.5 309.5 238 309.5 245C309.5 252.333 307.667 259 304 265C300.333 271 295.5 275.667 289.5 279C283.167 282.667 276.167 284.5 268.5 284.5H177.5V344.5H261C279.667 344.5 296.667 340.333 312 332C327.333 323.667 339.5 312 348.5 297C357.5 282.333 362 265 362 245Z" fill="white"/>
<path d="M375 356V303.5V58.5V6H435V58.5V303.5V356H375Z" fill="white"/>
<circle cx="117" cy="317" r="30" fill="white"/>
</svg>
